<svg width="35" height="35" viewBox="0 0 35 35" fill="none" xmlns="http://www.w3.org/2000/svg">
<g id="uil:comment">
<path id="Vector" d="M17.5 2.91669C15.5849 2.91669 13.6885 3.2939 11.9192 4.02678C10.1499 4.75966 8.5422 5.83386 7.18801 7.18805C4.45311 9.92295 2.91665 13.6323 2.91665 17.5C2.90391 20.8675 4.06989 24.1333 6.21249 26.7313L3.29582 29.6479C3.09347 29.853 2.95639 30.1134 2.90188 30.3963C2.84738 30.6792 2.87789 30.9719 2.98957 31.2375C3.1107 31.4999 3.30706 31.7204 3.55372 31.871C3.80039 32.0216 4.08624 32.0955 4.37499 32.0833H17.5C21.3677 32.0833 25.0771 30.5469 27.812 27.812C30.5469 25.0771 32.0833 21.3678 32.0833 17.5C32.0833 13.6323 30.5469 9.92295 27.812 7.18805C25.0771 4.45314 21.3677 2.91669 17.5 2.91669ZM17.5 29.1667H7.88957L9.24582 27.8104C9.51744 27.5372 9.66989 27.1676 9.66989 26.7823C9.66989 26.397 9.51744 26.0274 9.24582 25.7542C7.33626 23.8467 6.14712 21.3362 5.881 18.6503C5.61487 15.9645 6.28824 13.2694 7.78636 11.0243C9.28448 8.77924 11.5147 7.12304 14.097 6.3379C16.6793 5.55275 19.4539 5.68724 21.9482 6.71844C24.4425 7.74964 26.5021 9.61375 27.776 11.9932C29.05 14.3726 29.4596 17.1202 28.935 19.7677C28.4103 22.4153 26.984 24.799 24.8989 26.5129C22.8138 28.2267 20.199 29.1646 17.5 29.1667Z" fill="white"/>
</g>
</svg>
