<svg width="35" height="35" viewBox="0 0 35 35" fill="none" xmlns="http://www.w3.org/2000/svg">
<g id="ant-design:heart-outlined">
<path id="Vector" d="M31.5479 9.69339C31.0897 8.63258 30.4291 7.67128 29.603 6.86331C28.7763 6.05293 27.8016 5.40893 26.7319 4.96633C25.6227 4.50557 24.433 4.26972 23.2319 4.27248C21.5469 4.27248 19.9028 4.73391 18.4741 5.60549C18.1323 5.81399 17.8076 6.04299 17.5 6.29251C17.1924 6.04299 16.8677 5.81399 16.5259 5.60549C15.0972 4.73391 13.4531 4.27248 11.7681 4.27248C10.5547 4.27248 9.37891 4.50491 8.26807 4.96633C7.19483 5.41067 6.22754 6.04983 5.39697 6.86331C4.56981 7.67037 3.90906 8.63189 3.45215 9.69339C2.97705 10.7974 2.73438 11.9698 2.73438 13.1763C2.73438 14.3145 2.9668 15.5005 3.42822 16.7071C3.81445 17.7154 4.36816 18.7613 5.07568 19.8174C6.19678 21.4888 7.73828 23.232 9.65235 24.9991C12.8242 27.9283 15.9653 29.9517 16.0986 30.0337L16.9087 30.5533C17.2676 30.7823 17.729 30.7823 18.0879 30.5533L18.898 30.0337C19.0313 29.9483 22.1689 27.9283 25.3442 24.9991C27.2583 23.232 28.7998 21.4888 29.9209 19.8174C30.6284 18.7613 31.1856 17.7154 31.5684 16.7071C32.0298 15.5005 32.2622 14.3145 32.2622 13.1763C32.2656 11.9698 32.023 10.7974 31.5479 9.69339ZM17.5 27.8497C17.5 27.8497 5.33203 20.0533 5.33203 13.1763C5.33203 9.69339 8.21338 6.87014 11.7681 6.87014C14.2666 6.87014 16.4336 8.26468 17.5 10.3018C18.5664 8.26468 20.7334 6.87014 23.2319 6.87014C26.7866 6.87014 29.668 9.69339 29.668 13.1763C29.668 20.0533 17.5 27.8497 17.5 27.8497Z" fill="white"/>
</g>
</svg>
